<svg height="24" width="24" xmlns="http://www.w3.org/2000/svg"><g transform="translate(0 -1028.4)"><path d="m6 1034.4c-.7071 0-1.4347.1-2.0625.3-2.3366.8-3.943 3.2-3.9375 5.7-.005475 2.4 1.6009 4.8 3.9375 5.6.9747.4 2.1565.4 3.1875.4 1.95 0 3.172-2.1 4.875-2 1.703-.1 2.925 2 4.875 2 1.031 0 2.213 0 3.187-.4 2.337-.8 3.943-3.2 3.938-5.6.005-2.5-1.601-4.9-3.938-5.7-.631-.2-1.354-.3-2.062-.3h-1.125-9.75-.7812z" fill="#95a5a6"/><path d="m6 1033.4c-.7071 0-1.4347.1-2.0625.3-2.3366.8-3.943 3.2-3.9375 5.7-.005475 2.4 1.6009 4.8 3.9375 5.6.9747.4 2.1565.4 3.1875.4 1.95 0 3.172-2.1 4.875-2 1.703-.1 2.925 2 4.875 2 1.031 0 2.213 0 3.187-.4 2.337-.8 3.943-3.2 3.938-5.6.005-2.5-1.601-4.9-3.938-5.7-.631-.2-1.354-.3-2.062-.3h-1.125-9.75-.7812z" fill="#bdc3c7"/><path d="m11 11a4 4 0 1 1 -8 0 4 4 0 1 1 8 0z" fill="#ecf0f1" transform="translate(-1 1028.4)"/><path d="m6 1036.4c-.5523 0-1 .4-1 1v1h-1c-.5523 0-1 .4-1 1 0 .5.4477 1 1 1h1v1c0 .5.4477 1 1 1s1-.5 1-1v-1h1c.5523 0 1-.5 1-1 0-.6-.4477-1-1-1h-1v-1c0-.6-.4477-1-1-1z" fill="#7f8c8d"/><path d="m11 11a4 4 0 1 1 -8 0 4 4 0 1 1 8 0z" fill="#ecf0f1" transform="translate(11 1028.4)"/><path d="m16 10a1 1 0 1 1 -2 0 1 1 0 1 1 2 0z" fill="#27ae60" transform="translate(1 1029.4)"/><path d="m16 10a1 1 0 1 1 -2 0 1 1 0 1 1 2 0z" fill="#f39c12" transform="translate(3 1031.4)"/><path d="m16 10a1 1 0 1 1 -2 0 1 1 0 1 1 2 0z" fill="#2980b9" transform="translate(3 1027.4)"/><path d="m16 10a1 1 0 1 1 -2 0 1 1 0 1 1 2 0z" fill="#c0392b" transform="translate(5 1029.4)"/><path d="m11.5 11c-.276 0-.5.224-.5.5s.224.5.5.5h1c.276 0 .5-.224.5-.5s-.224-.5-.5-.5z" fill="#7f8c8d" transform="translate(0 1028.4)"/></g></svg>